<svg id="Layer_1" data-name="Layer 1" xmlns="http://www.w3.org/2000/svg" viewBox="0 0 574.78 100"><defs><style>.cls-1{fill:#fff;}</style></defs><rect class="cls-1" width="89.8" height="89.8"/><path class="cls-1" d="M284,7.7h7.66V78.77H284Zm87.16,18.13c-5.75,0-10.43,2.28-14.26,7.15-4,5.18-5.75,10.77-5.75,19.47,0,17.1,7.95,27.45,21.16,27.45a22.81,22.81,0,0,0,16.09-6.42l-2.88-5.18a15.71,15.71,0,0,1-11.68,4.86c-4.79,0-9.19-1.86-11.87-6.31-1.63-2.69-2.2-6.42-2.2-11.29V54.31H389.5V53.17c-.18-12.32-1.34-17.19-5.45-21.75A17,17,0,0,0,371.12,25.83ZM359.73,48.2c.38-10.67,4.21-16.05,11-16.05a9.9,9.9,0,0,1,8.61,4.55c1.44,2.49,2.11,5.91,2.21,11.5Zm73.95-14.6a16,16,0,0,1,1.15,6V78.77h-7.57V43.85c0-5.49-.38-6.83-1.72-8.59a6.71,6.71,0,0,0-5.27-2.18c-3.83,0-9.76,3.32-13.21,7.25V78.77h-7.28V39c0-7.36-1.81-10.88-1.81-10.88l7.27-2.18A22.16,22.16,0,0,1,407,34c5-5.38,9.94-8,15-8A12.58,12.58,0,0,1,433.68,33.6Zm21.74-6.32h12.31l-2.29,6.11H455.13V66.64c0,5.7,1.43,7.67,6.13,7.67,2.1,0,1.55,0,2.89-.7l1.06,5.18a10.45,10.45,0,0,1-6.64,1.73,13,13,0,0,1-6.22-1.44c-3.35-1.76-4.6-5.08-4.6-10.26V33.39h-6.22V27.28h6.22V7.74h7.67Zm-114-19.65h-7.47V24.8c0,3.72.09,8,.09,8a15.38,15.38,0,0,0-12.92-6.52,14.26,14.26,0,0,0-9.19,3.21c-6.52,4.86-9.86,12.94-9.86,23.92,0,16.47,7.08,26.1,19.43,26.1,5.56,0,9.2-1.75,12.64-6a19.77,19.77,0,0,0,1.05,5.29h7.67c-1.06-3-1.44-7.78-1.44-16.68Zm-7.56,58A10,10,0,0,1,331,69.34c-3.07,2.38-5.27,3.31-9.19,3.31-4.4,0-7.37-1.76-9.57-6-1.54-3-1.92-7.46-1.92-13.47,0-7.25.76-11,3.06-14.91a10,10,0,0,1,8.91-5.39c5.64,0,9.2,1.77,11.59,5.39Zm230.6-38.43L548.08,80.62C544.82,91,541,97.82,532.66,100l-2.2-5.49c4.66-1.58,7.1-3.88,9.14-9.49-.77-4.07-1.2-5.84-1.2-5.84-.57-3.32-3.16-13.37-4.78-18.54L523.36,28.32l7.39-2.7,9.76,33.46c1.44,4.87,2.87,12.84,2.87,12.84h.2s1.81-6.62,3-10.87l9.38-33.87Zm6.45,42.17c0-1.8-1-2.51-3-2.51h-3v8.55h1.5V71.71h.91l2.09,3.68H571l-2.16-3.74A2.09,2.09,0,0,0,570.9,69.35Zm-4.48,1.15V68.05h1.34c.77,0,1.64.17,1.64,1.17,0,1.15-.77,1.28-1.66,1.28Zm1.24-6.89a7.55,7.55,0,1,0,7.12,7.54A7.35,7.35,0,0,0,567.66,63.61Zm0,13.61c-3,0-5.38-2.55-5.38-6.07s2.4-6.08,5.38-6.08,5.39,2.55,5.39,6.08S570.64,77.22,567.66,77.22ZM506.27,33.29V66.54c0,5.7,1.44,7.67,6.12,7.67,2.11,0,1.56,0,2.9-.71l1.06,5.18a10.4,10.4,0,0,1-6.64,1.73A13,13,0,0,1,503.49,79c-3.35-1.76-4.59-5.07-4.59-10.26V33.29h-6.23V27.18h6.23V7.63h7.66V27.18h12l-2.3,6.11Zm-30.4-6L483.62,26V78.77h-7.75Z"/><path class="cls-1" d="M143.05,13.46c-3.65-2.18-7-3.37-18.07-3.37H107.86V78.93H121V53.58h7.21c7.2,0,10-.8,13-2.28,7.11-3.57,11.22-10.9,11.22-20C152.4,23.36,149.13,17,143.05,13.46Zm-6.56,25.26c-1.77,2.87-3.36,3.56-8.7,3.56H121v-21h8.32c5.53,0,8.8,3.87,8.8,10.3C138.08,34.85,137.62,36.84,136.49,38.72Zm19.76-24.47A8.06,8.06,0,0,1,164.11,6c4.21,0,7.58,3.66,7.58,8.22a7.74,7.74,0,1,1-15.44,0Zm1.41,14.85L170.19,27V78.93H157.66Zm92,36.86-6.74-.1c-1.31,0-2.06-.5-2.06-1.19,0-1.39,1.78-2.57,5-4.16a14.28,14.28,0,0,0,1.87.1c10.2,0,17.7-6.35,17.7-15.06a12.68,12.68,0,0,0-2.82-8.32,25.15,25.15,0,0,0,3.28.3,11.6,11.6,0,0,0,8.8-3.77l-5.24-8.42a14.64,14.64,0,0,1-9.92,4.36,23.94,23.94,0,0,1-5.9-1.09A32.76,32.76,0,0,0,245,27.33c-12.26,0-20.21,6.73-20.21,17.13,0,7.53,3.36,12.19,10.29,14.07-7.87,2.17-8.8,5.25-8.8,8.52,0,3.47,1.4,5.74,3.65,6.63s5.9,1.48,11.51,1.59l5.33.1c5,.1,8.8,1.49,8.8,6a6.21,6.21,0,0,1-3.08,5.15c-2,1.29-4.68,1.68-7.86,1.68-5.8,0-9-2.18-9-6.24a7.43,7.43,0,0,1,.56-3.26h-11.6a10.6,10.6,0,0,0-1.12,5.15,12.19,12.19,0,0,0,3.93,9c4.3,4.26,11.32,5.45,18.15,5.45,7.48,0,14.7-1.78,18.9-6.54a14.85,14.85,0,0,0,3.85-10.5c0-4.56-1.32-8-4.12-10.79C260.79,67.24,257,66.06,249.66,66ZM237.4,44.56c0-4.75,2.71-7.53,7.48-7.53s7.59,2.78,7.59,7.53-2.72,7.23-7.68,7.23C240.39,51.79,237.4,49.71,237.4,44.56Zm-35.76-6c-2.52,0-5.8,1.79-8.7,4.55V78.93H180.4V42.18a38.35,38.35,0,0,0-1.69-11.89l11.14-3.36a13.59,13.59,0,0,1,1.78,6.34,54.75,54.75,0,0,1,5.52-3.77,19,19,0,0,1,8.61-2.17c5.34,0,10,3,11.51,7.33a21.42,21.42,0,0,1,.94,7.23v37H205.85V46C205.85,40.2,204.92,38.52,201.64,38.52Z"/></svg>